<svg width="321" height="96" viewBox="0 0 321 96" fill="none" xmlns="http://www.w3.org/2000/svg">
<rect x="1.54407" y="1" width="318.296" height="94" rx="17" fill="black"/>
<path d="M68.0337 50.0351C68.0653 47.5821 68.7169 45.1768 69.9278 43.0432C71.1388 40.9096 72.8697 39.117 74.9596 37.8322C73.632 35.936 71.8805 34.3756 69.8442 33.2748C67.808 32.1739 65.5432 31.5631 63.2295 31.4907C58.2942 30.9727 53.5096 34.4439 50.9947 34.4439C48.4311 34.4439 44.5589 31.5421 40.3892 31.6279C37.6922 31.7151 35.0637 32.4993 32.7598 33.9044C30.456 35.3094 28.5554 37.2872 27.2432 39.6452C21.5592 49.4863 25.799 63.9493 31.2438 71.9041C33.968 75.7993 37.1518 80.1504 41.3177 79.9961C45.3943 79.827 46.9168 77.3966 51.8376 77.3966C56.7128 77.3966 58.1412 79.9961 62.3917 79.898C66.766 79.827 69.5221 75.9855 72.1507 72.0533C74.108 69.2778 75.6142 66.2103 76.6134 62.9644C74.072 61.8895 71.9032 60.0903 70.3775 57.7911C68.8518 55.4919 68.0366 52.7945 68.0337 50.0351V50.0351Z" fill="white"/>
<path d="M60.0054 26.259C62.3905 23.3958 63.5655 19.7156 63.281 16C59.6371 16.3827 56.2711 18.1243 53.8538 20.8776C52.6719 22.2227 51.7667 23.7876 51.19 25.4827C50.6132 27.1778 50.3762 28.97 50.4924 30.7568C52.3151 30.7756 54.1182 30.3805 55.7659 29.6014C57.4137 28.8223 58.8633 27.6795 60.0054 26.259Z" fill="white"/>
<path d="M121.201 63.7751H108.826L105.855 72.349H100.613L112.334 40.6277H117.78L129.5 72.349H124.17L121.201 63.7751ZM110.108 59.8186H119.916L115.081 45.9038H114.946L110.108 59.8186Z" fill="white"/>
<path d="M154.813 60.7865C154.813 67.9735 150.876 72.5909 144.935 72.5909C143.431 72.6678 141.934 72.3291 140.617 71.6135C139.3 70.8979 138.216 69.8344 137.488 68.5447H137.376V79.9998H132.518V49.2216H137.22V53.0683H137.31C138.07 51.7847 139.173 50.7267 140.5 50.0067C141.827 49.2868 143.329 48.9318 144.846 48.9796C150.853 48.9796 154.813 53.6196 154.813 60.7865ZM149.819 60.7865C149.819 56.1042 147.343 53.0258 143.564 53.0258C139.852 53.0258 137.356 56.169 137.356 60.7865C137.356 65.4464 139.852 68.5672 143.564 68.5672C147.343 68.5672 149.819 65.5113 149.819 60.7865Z" fill="white"/>
<path d="M180.863 60.7868C180.863 67.9737 176.927 72.5912 170.986 72.5912C169.481 72.6681 167.984 72.3293 166.667 71.6137C165.35 70.8981 164.266 69.8346 163.539 68.5449H163.427V80.0001H158.568V49.2218H163.271V53.0685H163.36C164.121 51.7849 165.223 50.7269 166.55 50.007C167.877 49.287 169.379 48.932 170.897 48.9799C176.904 48.9799 180.863 53.6198 180.863 60.7868ZM175.87 60.7868C175.87 56.1044 173.393 53.0261 169.615 53.0261C165.903 53.0261 163.406 56.1693 163.406 60.7868C163.406 65.4467 165.903 68.5674 169.615 68.5674C173.393 68.5674 175.87 65.5115 175.87 60.7868H175.87Z" fill="white"/>
<path d="M198.081 63.5107C198.441 66.6564 201.568 68.7218 205.842 68.7218C209.937 68.7218 212.883 66.6563 212.883 63.82C212.883 61.3578 211.106 59.8835 206.899 58.8732L202.691 57.8828C196.73 56.4759 193.963 53.7518 193.963 49.3314C193.963 43.8582 198.844 40.0989 205.775 40.0989C212.635 40.0989 217.338 43.8582 217.496 49.3314H212.592C212.298 46.1657 209.62 44.2549 205.706 44.2549C201.793 44.2549 199.115 46.1882 199.115 49.0021C199.115 51.2447 200.825 52.5644 205.009 53.5746L208.586 54.4327C215.247 55.9719 218.014 58.5863 218.014 63.2262C218.014 69.1608 213.176 72.8777 205.482 72.8777C198.282 72.8777 193.421 69.2481 193.107 63.5105L198.081 63.5107Z" fill="white"/>
<path d="M228.499 43.7485V49.2217H233V52.981H228.499V65.7309C228.499 67.7116 229.401 68.6346 231.379 68.6346C231.913 68.6255 232.447 68.5888 232.977 68.5247V72.2616C232.088 72.424 231.184 72.4976 230.279 72.4812C225.487 72.4812 223.618 70.7225 223.618 66.2372V52.981H220.177V49.2217H223.618V43.7485H228.499Z" fill="white"/>
<path d="M235.607 60.7866C235.607 53.5098 239.993 48.9373 246.832 48.9373C253.695 48.9373 258.06 53.5097 258.06 60.7866C258.06 68.0833 253.718 72.6359 246.832 72.6359C239.949 72.6359 235.607 68.0832 235.607 60.7866ZM253.11 60.7866C253.11 55.7949 250.769 52.8488 246.832 52.8488C242.896 52.8488 240.557 55.8173 240.557 60.7866C240.557 65.7982 242.896 68.7219 246.832 68.7219C250.769 68.7219 253.11 65.7982 253.11 60.7866H253.11Z" fill="white"/>
<path d="M262.066 49.2216H266.699V53.158H266.812C267.125 51.9286 267.862 50.8421 268.899 50.0812C269.936 49.3203 271.209 48.9313 272.505 48.9796C273.065 48.9777 273.623 49.0371 274.17 49.1567V53.5971C273.463 53.3861 272.725 53.2892 271.987 53.3102C271.281 53.2823 270.577 53.4039 269.924 53.6667C269.271 53.9295 268.684 54.3273 268.203 54.8328C267.722 55.3383 267.358 55.9395 267.138 56.5952C266.917 57.2508 266.844 57.9454 266.924 58.6312V72.3489H262.066L262.066 49.2216Z" fill="white"/>
<path d="M296.569 65.5562C295.916 69.7546 291.731 72.6359 286.378 72.6359C279.492 72.6359 275.219 68.1281 275.219 60.8963C275.219 53.6421 279.515 48.9373 286.174 48.9373C292.722 48.9373 296.84 53.3327 296.84 60.345V61.9715H280.123V62.2584C280.046 63.1095 280.155 63.967 280.443 64.7738C280.731 65.5806 281.191 66.3182 281.794 66.9378C282.396 67.5574 283.126 68.0447 283.936 68.3673C284.745 68.69 285.616 68.8406 286.49 68.8092C287.638 68.9143 288.79 68.6544 289.775 68.0684C290.76 67.4823 291.525 66.6012 291.956 65.5562L296.569 65.5562ZM280.146 58.6537H291.979C292.023 57.8884 291.904 57.1225 291.63 56.4042C291.357 55.6858 290.934 55.0305 290.389 54.4794C289.844 53.9282 289.188 53.4931 288.462 53.2013C287.737 52.9096 286.958 52.7675 286.174 52.7839C285.382 52.7793 284.598 52.9278 283.866 53.2209C283.134 53.514 282.468 53.9459 281.908 54.4916C281.348 55.0374 280.903 55.6861 280.601 56.4005C280.299 57.1148 280.144 57.8806 280.146 58.6537V58.6537Z" fill="white"/>
<path d="M109.499 16.7512C110.517 16.6798 111.54 16.8301 112.491 17.1914C113.443 17.5527 114.301 18.1159 115.003 18.8404C115.706 19.5649 116.234 20.4327 116.552 21.3811C116.869 22.3295 116.967 23.3349 116.839 24.3248C116.839 29.1942 114.145 31.9932 109.499 31.9932H103.865V16.7512H109.499ZM106.287 29.8377H109.228C109.956 29.8802 110.684 29.7636 111.36 29.4964C112.036 29.2291 112.643 28.818 113.135 28.2929C113.628 27.7678 113.995 27.1419 114.209 26.4608C114.423 25.7798 114.479 25.0607 114.373 24.3558C114.471 23.6538 114.41 22.9391 114.192 22.263C113.975 21.587 113.607 20.9662 113.116 20.4453C112.624 19.9243 112.021 19.5161 111.348 19.2499C110.676 18.9836 109.952 18.8659 109.228 18.9051H106.287V29.8377Z" fill="white"/>
<path d="M119.575 26.2367C119.501 25.4808 119.59 24.7182 119.835 23.9976C120.081 23.2771 120.477 22.6146 121 22.0527C121.523 21.4907 122.16 21.0417 122.871 20.7345C123.581 20.4273 124.35 20.2686 125.127 20.2686C125.904 20.2686 126.673 20.4273 127.383 20.7345C128.094 21.0417 128.731 21.4907 129.254 22.0527C129.776 22.6146 130.173 23.2771 130.419 23.9976C130.664 24.7182 130.752 25.4808 130.678 26.2367C130.754 26.9934 130.666 27.7572 130.422 28.4789C130.177 29.2006 129.78 29.8643 129.258 30.4273C128.735 30.9903 128.097 31.4403 127.386 31.7482C126.674 32.0561 125.905 32.2151 125.127 32.2151C124.349 32.2151 123.579 32.0561 122.868 31.7482C122.157 31.4403 121.519 30.9903 120.996 30.4273C120.473 29.8643 120.077 29.2006 119.832 28.4789C119.588 27.7572 119.5 26.9934 119.575 26.2367V26.2367ZM128.289 26.2367C128.289 23.7434 127.142 22.2853 125.131 22.2853C123.111 22.2853 121.975 23.7434 121.975 26.2368C121.975 28.7501 123.111 30.1969 125.131 30.1969C127.143 30.1969 128.289 28.7401 128.289 26.2367H128.289Z" fill="white"/>
<path d="M145.437 31.9928H143.027L140.594 23.5212H140.41L137.988 31.9928H135.601L132.356 20.4902H134.712L136.821 29.2674H136.995L139.415 20.4902H141.643L144.064 29.2674H144.247L146.346 20.4902H148.669L145.437 31.9928Z" fill="white"/>
<path d="M151.398 20.4902H153.635V22.3175H153.808C154.103 21.6612 154.6 21.111 155.229 20.7437C155.859 20.3763 156.59 20.2101 157.321 20.2682C157.894 20.2261 158.469 20.3105 159.004 20.5151C159.539 20.7197 160.02 21.0392 160.411 21.4501C160.802 21.861 161.094 22.3526 161.265 22.8886C161.435 23.4246 161.48 23.9912 161.396 24.5464V31.9926H159.073V25.1164C159.073 23.2679 158.251 22.3487 156.532 22.3487C156.143 22.331 155.755 22.3956 155.394 22.5383C155.033 22.6809 154.708 22.8981 154.441 23.1749C154.174 23.4518 153.972 23.7818 153.848 24.1423C153.723 24.5028 153.68 24.8853 153.722 25.2636V31.9928H151.398L151.398 20.4902Z" fill="white"/>
<path d="M165.098 16H167.421V31.9928H165.098V16Z" fill="white"/>
<path d="M170.65 26.2367C170.576 25.4807 170.665 24.718 170.91 23.9975C171.156 23.2769 171.552 22.6144 172.075 22.0525C172.598 21.4905 173.235 21.0415 173.946 20.7343C174.657 20.427 175.425 20.2683 176.202 20.2683C176.98 20.2683 177.748 20.427 178.459 20.7343C179.17 21.0415 179.807 21.4905 180.329 22.0525C180.852 22.6144 181.249 23.2769 181.494 23.9975C181.74 24.718 181.828 25.4807 181.754 26.2367C181.83 26.9934 181.742 27.7572 181.497 28.4789C181.253 29.2006 180.856 29.8642 180.333 30.4273C179.81 30.9903 179.173 31.4402 178.461 31.7481C177.75 32.056 176.98 32.215 176.202 32.215C175.424 32.215 174.655 32.056 173.943 31.7481C173.232 31.4402 172.594 30.9903 172.071 30.4273C171.549 29.8642 171.152 29.2006 170.907 28.4789C170.662 27.7572 170.575 26.9934 170.65 26.2367V26.2367ZM179.364 26.2367C179.364 23.7434 178.217 22.2853 176.206 22.2853C174.186 22.2853 173.05 23.7434 173.05 26.2367C173.05 28.75 174.186 30.1969 176.206 30.1969C178.217 30.1969 179.364 28.74 179.364 26.2367H179.364Z" fill="white"/>
<path d="M184.2 28.7399C184.2 26.6694 185.778 25.4758 188.578 25.3061L191.767 25.1265V24.1337C191.767 22.9188 190.945 22.2328 189.357 22.2328C188.06 22.2328 187.162 22.698 186.904 23.5113H184.655C184.892 21.5356 186.794 20.2683 189.464 20.2683C192.416 20.2683 194.08 21.7039 194.08 24.1337V31.9929H191.844V30.3764H191.66C191.287 30.9562 190.763 31.4289 190.142 31.7462C189.521 32.0635 188.824 32.214 188.124 32.1824C187.63 32.2326 187.13 32.1811 186.658 32.0312C186.185 31.8812 185.75 31.6362 185.38 31.3118C185.011 30.9875 184.715 30.5911 184.511 30.1481C184.308 29.7051 184.202 29.2254 184.2 28.7399V28.7399ZM191.767 27.757V26.7954L188.893 26.975C187.271 27.081 186.536 27.6198 186.536 28.6339C186.536 29.6691 187.455 30.2716 188.719 30.2716C189.089 30.3082 189.463 30.2717 189.819 30.1642C190.174 30.0566 190.504 29.8803 190.789 29.6457C191.073 29.4111 191.306 29.123 191.474 28.7986C191.642 28.4741 191.742 28.1199 191.767 27.757V27.757Z" fill="white"/>
<path d="M197.134 26.2366C197.134 22.602 199.046 20.2995 202.02 20.2995C202.756 20.2663 203.486 20.4385 204.125 20.7959C204.764 21.1532 205.286 21.681 205.63 22.3175H205.803V16H208.127V31.9928H205.9V30.1755H205.717C205.346 30.8077 204.806 31.3289 204.155 31.6827C203.503 32.0364 202.765 32.2092 202.02 32.1824C199.025 32.1825 197.134 29.8799 197.134 26.2366ZM199.533 26.2366C199.533 28.6763 200.71 30.1444 202.679 30.1444C204.637 30.1444 205.847 28.6551 205.847 26.2466C205.847 23.8493 204.624 22.3388 202.679 22.3388C200.723 22.3388 199.533 23.8168 199.533 26.2366H199.533Z" fill="white"/>
<path d="M217.739 26.2367C217.665 25.4808 217.753 24.7182 217.998 23.9976C218.244 23.2771 218.64 22.6146 219.163 22.0527C219.686 21.4907 220.323 21.0417 221.034 20.7345C221.744 20.4273 222.513 20.2686 223.29 20.2686C224.067 20.2686 224.836 20.4273 225.546 20.7345C226.257 21.0417 226.894 21.4907 227.417 22.0527C227.94 22.6146 228.336 23.2771 228.582 23.9976C228.827 24.7182 228.915 25.4808 228.841 26.2367C228.917 26.9934 228.829 27.7572 228.585 28.4789C228.34 29.2006 227.944 29.8643 227.421 30.4273C226.898 30.9903 226.26 31.4403 225.549 31.7482C224.838 32.0561 224.068 32.2151 223.29 32.2151C222.512 32.2151 221.742 32.0561 221.031 31.7482C220.32 31.4403 219.682 30.9903 219.159 30.4273C218.636 29.8643 218.24 29.2006 217.995 28.4789C217.751 27.7572 217.663 26.9934 217.739 26.2367V26.2367ZM226.452 26.2367C226.452 23.7434 225.306 22.2853 223.294 22.2853C221.274 22.2853 220.138 23.7434 220.138 26.2368C220.138 28.7501 221.275 30.1969 223.294 30.1969C225.306 30.1969 226.452 28.7401 226.452 26.2367Z" fill="white"/>
<path d="M231.959 20.4902H234.195V22.3175H234.369C234.663 21.6612 235.16 21.111 235.79 20.7437C236.419 20.3763 237.151 20.2101 237.882 20.2682C238.454 20.2261 239.029 20.3105 239.564 20.5151C240.099 20.7197 240.58 21.0392 240.971 21.4501C241.363 21.861 241.654 22.3526 241.825 22.8886C241.995 23.4246 242.04 23.9912 241.956 24.5464V31.9926H239.633V25.1164C239.633 23.2679 238.811 22.3487 237.093 22.3487C236.704 22.331 236.316 22.3956 235.955 22.5383C235.594 22.6809 235.269 22.8981 235.002 23.1749C234.735 23.4518 234.532 23.7818 234.408 24.1423C234.284 24.5028 234.241 24.8853 234.282 25.2636V31.9928H231.959V20.4902Z" fill="white"/>
<path d="M255.083 17.6265V20.5426H257.634V22.4548H255.083V28.3694C255.083 29.5743 255.591 30.1019 256.748 30.1019C257.044 30.101 257.34 30.0835 257.634 30.0495V31.9404C257.217 32.0133 256.794 32.0521 256.37 32.0564C253.787 32.0564 252.758 31.1683 252.758 28.9506V22.4547H250.889V20.5425H252.758V17.6265H255.083Z" fill="white"/>
<path d="M260.807 16H263.11V22.3388H263.294C263.603 21.6763 264.113 21.1231 264.755 20.7543C265.398 20.3856 266.141 20.2194 266.883 20.2782C267.453 20.2479 268.023 20.3409 268.551 20.5505C269.08 20.76 269.555 21.0811 269.942 21.4906C270.33 21.9002 270.62 22.3883 270.791 22.9199C270.963 23.4516 271.013 24.0138 270.937 24.5664V31.9928H268.612V25.1265C268.612 23.2892 267.736 22.3587 266.094 22.3587C265.695 22.3267 265.294 22.3803 264.918 22.5159C264.542 22.6514 264.201 22.8655 263.918 23.1433C263.636 23.421 263.419 23.7557 263.283 24.1239C263.147 24.4921 263.095 24.8849 263.13 25.2749V31.9928H260.807L260.807 16Z" fill="white"/>
<path d="M284.483 28.8871C284.168 29.9383 283.484 30.8477 282.551 31.456C281.619 32.0644 280.497 32.333 279.383 32.2148C278.607 32.2348 277.836 32.0897 277.124 31.7895C276.412 31.4893 275.775 31.0411 275.257 30.4763C274.74 29.9114 274.354 29.2432 274.128 28.5182C273.901 27.7932 273.839 27.0287 273.945 26.2777C273.841 25.5245 273.905 24.7583 274.131 24.0311C274.357 23.3039 274.741 22.6327 275.255 22.0629C275.77 21.493 276.404 21.0379 277.114 20.7283C277.824 20.4187 278.595 20.2618 279.372 20.2683C282.648 20.2683 284.624 22.4549 284.624 26.0669V26.859H276.311V26.9862C276.275 27.4083 276.329 27.8332 276.471 28.2336C276.612 28.634 276.838 29.0011 277.133 29.3114C277.428 29.6216 277.786 29.8682 278.185 30.0353C278.583 30.2023 279.013 30.2862 279.446 30.2815C280.002 30.3467 280.565 30.2489 281.064 30.0006C281.563 29.7523 281.974 29.3646 282.247 28.887L284.483 28.8871ZM276.311 25.1801H282.257C282.286 24.7941 282.233 24.4063 282.1 24.0417C281.966 23.6772 281.757 23.3438 281.484 23.0632C281.211 22.7826 280.881 22.5609 280.515 22.4122C280.149 22.2636 279.756 22.1915 279.36 22.2003C278.958 22.1954 278.559 22.2691 278.187 22.4171C277.815 22.5651 277.477 22.7845 277.192 23.0622C276.908 23.3399 276.684 23.6703 276.533 24.0341C276.381 24.3978 276.306 24.7875 276.311 25.1801H276.311Z" fill="white"/>
<rect x="1.54407" y="1" width="318.296" height="94" rx="17" stroke="#44D62C" stroke-width="2"/>
</svg>
