<svg width="330" height="96" viewBox="0 0 330 96" fill="none" xmlns="http://www.w3.org/2000/svg">
<rect x="1.83997" y="1" width="326.66" height="94" rx="17" fill="black"/>
<path d="M51.5774 46.5645L25.0843 74.6825C25.0868 74.6874 25.0868 74.6949 25.0893 74.6999C25.9029 77.753 28.6899 80 31.9993 80C33.3231 80 34.5648 79.6417 35.6298 79.0146L35.7144 78.9649L65.5344 61.7581L51.5774 46.5645Z" fill="#EA4335"/>
<path d="M78.3789 41.7764L78.354 41.759L65.4794 34.2965L50.975 47.2034L65.5317 61.7551L78.3366 54.3673C80.581 53.153 82.1064 50.7866 82.1064 48.0594C82.1064 45.3472 80.6034 42.9932 78.3789 41.7764Z" fill="#FBBC04"/>
<path d="M25.0838 21.3154C24.9246 21.9026 24.84 22.5197 24.84 23.1568V72.8435C24.84 73.4805 24.9246 74.0976 25.0863 74.6824L52.4877 47.2835L25.0838 21.3154Z" fill="#4285F4"/>
<path d="M51.7731 47.9998L65.4838 34.2916L35.6986 17.0227C34.6162 16.3732 33.3521 16 32.001 16C28.6915 16 25.8996 18.2519 25.0859 21.3076C25.0859 21.31 25.0834 21.3125 25.0834 21.315L51.7731 47.9998Z" fill="#34A853"/>
<path d="M121.104 23.945C121.104 25.916 120.521 27.4847 119.352 28.656C118.023 30.0484 116.294 30.7446 114.168 30.7446C112.129 30.7446 110.398 30.039 108.975 28.6255C107.547 27.2143 106.837 25.462 106.837 23.3734C106.837 21.2825 107.547 19.5326 108.975 18.1191C110.398 16.7079 112.129 15.9999 114.168 15.9999C115.177 15.9999 116.146 16.1975 117.063 16.5926C117.983 16.9877 118.719 17.5122 119.272 18.1685L118.03 19.4103C117.096 18.2955 115.81 17.7357 114.168 17.7357C112.681 17.7357 111.397 18.2578 110.313 19.3021C109.229 20.3488 108.688 21.7035 108.688 23.3734C108.688 25.041 109.229 26.3981 110.313 27.4424C111.397 28.4891 112.681 29.0088 114.168 29.0088C115.744 29.0088 117.056 28.4844 118.11 27.433C118.792 26.7486 119.185 25.7984 119.29 24.5753H114.168V22.8795H121.005C121.071 23.2488 121.104 23.6039 121.104 23.945Z" fill="white"/>
<path d="M121.104 23.945C121.104 25.916 120.521 27.4847 119.352 28.656C118.023 30.0484 116.294 30.7446 114.168 30.7446C112.129 30.7446 110.398 30.039 108.975 28.6255C107.547 27.2143 106.837 25.462 106.837 23.3734C106.837 21.2825 107.547 19.5326 108.975 18.1191C110.398 16.7079 112.129 15.9999 114.168 15.9999C115.177 15.9999 116.146 16.1975 117.063 16.5926C117.983 16.9877 118.719 17.5122 119.272 18.1685L118.03 19.4103C117.096 18.2955 115.81 17.7357 114.168 17.7357C112.681 17.7357 111.397 18.2578 110.313 19.3021C109.229 20.3488 108.688 21.7035 108.688 23.3734C108.688 25.041 109.229 26.3981 110.313 27.4424C111.397 28.4891 112.681 29.0088 114.168 29.0088C115.744 29.0088 117.056 28.4844 118.11 27.433C118.792 26.7486 119.185 25.7984 119.29 24.5753H114.168V22.8795H121.005C121.071 23.2488 121.104 23.6039 121.104 23.945Z" fill="white"/>
<path d="M131.945 18.0511H125.519V22.5246H131.315V24.2204H125.519V28.6939H131.945V30.4297H123.706V16.3177H131.945V18.0511Z" fill="white"/>
<path d="M131.945 18.0511H125.519V22.5246H131.315V24.2204H125.519V28.6939H131.945V30.4297H123.706V16.3177H131.945V18.0511Z" fill="white"/>
<path d="M139.591 30.4292H137.778V18.0506H133.836V16.3172H143.533V18.0506H139.591V30.4292Z" fill="white"/>
<path d="M139.591 30.4292H137.778V18.0506H133.836V16.3172H143.533V18.0506H139.591V30.4292Z" fill="white"/>
<path d="M150.55 16.3172H152.363V30.4292H150.55V16.3172Z" fill="white"/>
<path d="M160.406 30.4292H158.592V18.0506H154.65V16.3172H164.348V18.0506H160.406V30.4292Z" fill="white"/>
<path d="M160.406 30.4292H158.592V18.0506H154.65V16.3172H164.348V18.0506H160.406V30.4292Z" fill="white"/>
<path d="M173.697 27.4236C174.741 28.482 176.018 29.0088 177.53 29.0088C179.043 29.0088 180.32 28.482 181.364 27.4236C182.409 26.3652 182.933 25.0151 182.933 23.3734C182.933 21.7317 182.409 20.3793 181.364 19.3233C180.32 18.2649 179.043 17.7357 177.53 17.7357C176.018 17.7357 174.741 18.2649 173.697 19.3233C172.655 20.3793 172.13 21.7317 172.13 23.3734C172.13 25.0151 172.655 26.3652 173.697 27.4236ZM182.705 28.6043C181.317 30.032 179.593 30.7446 177.53 30.7446C175.468 30.7446 173.744 30.032 172.358 28.6043C170.971 27.179 170.279 25.4362 170.279 23.3734C170.279 21.3107 170.971 19.5655 172.358 18.1402C173.744 16.7149 175.468 15.9999 177.53 15.9999C179.581 15.9999 181.301 16.7173 182.695 18.1496C184.088 19.582 184.784 21.3225 184.784 23.3734C184.784 25.4362 184.09 27.179 182.705 28.6043Z" fill="white"/>
<path d="M173.697 27.4236C174.741 28.482 176.018 29.0088 177.53 29.0088C179.043 29.0088 180.32 28.482 181.364 27.4236C182.409 26.3652 182.933 25.0151 182.933 23.3734C182.933 21.7317 182.409 20.3793 181.364 19.3233C180.32 18.2649 179.043 17.7357 177.53 17.7357C176.018 17.7357 174.741 18.2649 173.697 19.3233C172.655 20.3793 172.13 21.7317 172.13 23.3734C172.13 25.0151 172.655 26.3652 173.697 27.4236ZM182.705 28.6043C181.317 30.032 179.593 30.7446 177.53 30.7446C175.468 30.7446 173.744 30.032 172.358 28.6043C170.971 27.179 170.279 25.4362 170.279 23.3734C170.279 21.3107 170.971 19.5655 172.358 18.1402C173.744 16.7149 175.468 15.9999 177.53 15.9999C179.581 15.9999 181.301 16.7173 182.695 18.1496C184.088 19.582 184.784 21.3225 184.784 23.3734C184.784 25.4362 184.09 27.179 182.705 28.6043Z" fill="white"/>
<path d="M187.329 30.4292V16.3172H189.535L196.393 27.294H196.473L196.393 24.5751V16.3172H198.209V30.4292H196.316L189.14 18.9185H189.062L189.14 21.6398V30.4292H187.329Z" fill="white"/>
<path d="M187.329 30.4292V16.3172H189.535L196.393 27.294H196.473L196.393 24.5751V16.3172H198.209V30.4292H196.316L189.14 18.9185H189.062L189.14 21.6398V30.4292H187.329Z" fill="white"/>
<path d="M261.089 70.4132H265.478V41.0108H261.089V70.4132ZM300.62 51.6019L295.589 64.3498H295.438L290.217 51.6019H285.489L293.319 69.4183L288.857 79.3297H293.432L305.5 51.6019H300.62ZM275.731 67.0734C274.291 67.0734 272.287 66.356 272.287 64.5755C272.287 62.3082 274.783 61.438 276.94 61.438C278.868 61.438 279.778 61.8543 280.95 62.4211C280.609 65.1447 278.264 67.0734 275.731 67.0734ZM276.26 50.9598C273.082 50.9598 269.79 52.3592 268.43 55.4615L272.325 57.0868C273.158 55.4615 274.708 54.93 276.335 54.93C278.605 54.93 280.912 56.2918 280.95 58.7143V59.0154C280.155 58.5615 278.454 57.8817 276.373 57.8817C272.174 57.8817 267.899 60.1891 267.899 64.5003C267.899 68.4352 271.342 70.9706 275.199 70.9706C278.151 70.9706 279.778 69.6465 280.799 68.0941H280.95V70.3638H285.186V59.0907C285.186 53.8716 281.291 50.9598 276.26 50.9598M249.137 55.1816H242.894V45.1033H249.137C252.418 45.1033 254.28 47.8199 254.28 50.1413C254.28 52.4204 252.418 55.1816 249.137 55.1816ZM249.024 41.0108H238.508V70.4132H242.894V59.2741H249.024C253.888 59.2741 258.669 55.7508 258.669 50.1413C258.669 44.5318 253.888 41.0108 249.024 41.0108M191.679 67.0781C188.648 67.0781 186.11 64.5403 186.11 61.0546C186.11 57.5313 188.648 54.9535 191.679 54.9535C194.674 54.9535 197.021 57.5313 197.021 61.0546C197.021 64.5403 194.674 67.0781 191.679 67.0781ZM196.72 53.2483H196.567C195.581 52.0746 193.688 51.0139 191.301 51.0139C186.298 51.0139 181.714 55.4074 181.714 61.0546C181.714 66.6618 186.298 71.02 191.301 71.02C193.688 71.02 195.581 69.9593 196.567 68.7457H196.72V70.1874C196.72 74.0141 194.674 76.0604 191.376 76.0604C188.685 76.0604 187.018 74.127 186.336 72.4971L182.509 74.0894C183.607 76.7425 186.526 80 191.376 80C196.529 80 200.888 76.9683 200.888 69.5806V51.6183H196.72V53.2483ZM203.919 70.4132H208.315V41.0084H203.919V70.4132ZM214.793 60.7135C214.68 56.8492 217.787 54.8782 220.021 54.8782C221.766 54.8782 223.243 55.7485 223.735 56.9997L214.793 60.7135ZM228.434 57.3784C227.602 55.144 225.061 51.0139 219.871 51.0139C214.717 51.0139 210.437 55.0664 210.437 61.017C210.437 66.6241 214.68 71.02 220.362 71.02C224.949 71.02 227.602 68.2164 228.7 66.5865L225.29 64.3121C224.154 65.9797 222.599 67.0781 220.362 67.0781C218.128 67.0781 216.535 66.055 215.512 64.0487L228.888 58.5144L228.434 57.3784ZM121.87 54.0832V58.3263H132.023C131.72 60.7136 130.925 62.4564 129.713 63.6677C128.234 65.1471 125.922 66.777 121.87 66.777C115.616 66.777 110.728 61.7367 110.728 55.485C110.728 49.2311 115.616 44.1931 121.87 44.1931C125.242 44.1931 127.705 45.5196 129.523 47.2248L132.517 44.2307C129.977 41.8058 126.606 39.9477 121.87 39.9477C113.306 39.9477 106.106 46.9214 106.106 55.485C106.106 64.0487 113.306 71.02 121.87 71.02C126.491 71.02 129.977 69.503 132.705 66.6618C135.511 63.8582 136.381 59.9186 136.381 56.734C136.381 55.7485 136.306 54.8406 136.153 54.0832H121.87ZM147.927 67.0781C144.896 67.0781 142.28 64.5779 142.28 61.017C142.28 57.416 144.896 54.9535 147.927 54.9535C150.957 54.9535 153.572 57.416 153.572 61.017C153.572 64.5779 150.957 67.0781 147.927 67.0781ZM147.927 51.0139C142.393 51.0139 137.884 55.2193 137.884 61.017C137.884 66.777 142.393 71.02 147.927 71.02C153.459 71.02 157.968 66.777 157.968 61.017C157.968 55.2193 153.459 51.0139 147.927 51.0139ZM169.832 67.0781C166.8 67.0781 164.184 64.5779 164.184 61.017C164.184 57.416 166.8 54.9535 169.832 54.9535C172.863 54.9535 175.476 57.416 175.476 61.017C175.476 64.5779 172.863 67.0781 169.832 67.0781ZM169.832 51.0139C164.3 51.0139 159.791 55.2193 159.791 61.017C159.791 66.777 164.3 71.02 169.832 71.02C175.364 71.02 179.872 66.777 179.872 61.017C179.872 55.2193 175.364 51.0139 169.832 51.0139Z" fill="white"/>
<rect x="1.83997" y="1" width="326.66" height="94" rx="17" stroke="#44D62C" stroke-width="2"/>
</svg>
